<svg xmlns="http://www.w3.org/2000/svg" width="24" height="24" version="1.1" viewBox="0 0 24 24"><g fill="#26a69a"><path stroke-width="1.181" d="m14.771 11.549-1.6659 1.6416 2.4996 2.4608-2.4996 2.4608 1.6659 1.64 2.5013-2.4608 2.4996 2.4608 1.6659-1.64-2.4996-2.4608 2.4996-2.4608-1.6659-1.6416-2.4996 2.4608z" transform="translate(-.21861 -.12659)"/><path stroke-width="1.503" d="m5.9881 4.5008c-1.6435 0-2.9884 1.3602-2.9884 3.0225v9.0654c0 1.6774 1.3449 3.0225 2.9884 3.0225h2.9884c1.6585 0 2.9884-1.3451 2.9884-3.0225v-9.0654c0-1.6623-1.3299-3.0225-2.9884-3.0225zm0 3.0225h2.9884v9.0654h-2.9884z" transform="translate(-.21861 -.12659)"/></g></svg>