<svg xmlns="http://www.w3.org/2000/svg" version="1.1" viewBox="0 0 24 24"><g fill="#0288d1" transform="matrix(.79956 0 0 .79956 1.086 1.018)"><g id="mark-2-path"><path fill="#0288d1" d="m19.52 5.65h-6.68a6.91 6.91 0 0 0-6.94 6.92v6.68a6.91 6.91 0 0 0 6.91 6.91h6.68a6.91 6.91 0 0 0 6.91-6.92v-6.67a6.91 6.91 0 0 0-6.88-6.92zm-6.75 7.47a2 2 0 1 1 0.23-2.52 2 2 0 0 1-0.23 2.52zm6.63 9.69a3.5 3.5 0 1 1 3.5-3.5 3.5 3.5 0 0 1-3.5 3.5z" class="cls-1"/></g><g id="Oval"><circle cx="3.65" cy="4.06" r="2" class="cls-1"/><circle cx="3.65" cy="4.06" r="2.75" class="cls-1"/></g></g></svg>