<svg xmlns="http://www.w3.org/2000/svg" version="1.1" viewBox="100 100 800 800"><style/><linearGradient id="XMLID_8_" x1="429.39" x2="469.39" y1="517.16" y2="559.16" gradientTransform="matrix(1.1129,0,0,1.1129,-54.117,-62.353)" gradientUnits="userSpaceOnUse"><stop offset="0" stop-color="#FF6533"/><stop offset=".157" stop-color="#FF5633"/><stop offset=".434" stop-color="#FF4333"/><stop offset=".714" stop-color="#FF3733"/><stop offset="1" stop-color="#F33"/></linearGradient><linearGradient id="XMLID_11_" x1="450.12" x2="506.94" y1="514.21" y2="552.85" gradientTransform="matrix(1.1129,0,0,1.1129,-54.117,-62.353)" gradientUnits="userSpaceOnUse"><stop offset="0" stop-color="#FBB040"/><stop offset="1" stop-color="#FB8840"/></linearGradient><linearGradient id="XMLID_16_" x1="508.33" x2="450.33" y1="295.76" y2="933.76" gradientTransform="matrix(1.1129,0,0,1.1129,-54.117,-62.353)" gradientUnits="userSpaceOnUse"><stop offset="0" stop-color="#FFF"/><stop offset="1" stop-color="#FFF" stop-opacity="0"/></linearGradient><path style="fill:#f44336;stroke-width:31.339" d="m733.79 394.71c0 77.407-42.308 144.79-104.67 180.51-3.7607 3.1339-5.9544 8.1481-3.7607 12.849l106.87 211.22c2.8205 6.5812-1.567 14.103-8.7749 14.103h-408.35l2.1937-1.2536c15.356-8.7749 121.91-219.06 225.95-318.72 104.05-99.658 117.21-66.439 59.857-174.87 0 0 44.188 86.182 6.5812 92.763-29.459 5.3276-97.151-60.171-72.08-119.09 25.071-57.664 123.79-46.695 169.23.3134 17.236 30.085 26.952 64.872 26.952 102.17m-385.47 140.71c-41.367 76.154-67.692 131.62-82.108 170.48v-509.57c0-5.3276 4.3875-9.7151 9.7151-9.7151h252.91c73.333 1.2536 137.58 40.114 173.62 98.718-26.325-32.906-67.692-51.709-108.43-51.709-77.407 0-96.837 28.205-245.7 301.79z"/></svg>